<?xml version="1.0" encoding="UTF-8"?>
<svg width="400" height="400" viewBox="0 0 400 400" xmlns="http://www.w3.org/2000/svg">
  <!-- Background: Deep space gradient -->
  <defs>
    <linearGradient id="spaceGradient" x1="0%" y1="0%" x2="100%" y2="100%">
      <stop offset="0%" stop-color="#0f0c29"/>
      <stop offset="50%" stop-color="#302b63"/>
      <stop offset="100%" stop-color="#24243e"/>
    </linearGradient>
    <radialGradient id="starGlow" cx="50%" cy="50%" r="50%">
      <stop offset="0%" stop-color="#ffffff" stop-opacity="0.8"/>
      <stop offset="100%" stop-color="#ffffff" stop-opacity="0"/>
    </radialGradient>
  </defs>
  
  <!-- Background -->
  <rect width="400" height="400" fill="url(#spaceGradient)"/>
  
  <!-- Stars -->
  <circle cx="50" cy="50" r="2" fill="white"/>
  <circle cx="350" cy="80" r="1.5" fill="white"/>
  <circle cx="100" cy="300" r="1" fill="white"/>
  <circle cx="280" cy="350" r="1.8" fill="white"/>
  <circle cx="200" cy="100" r="1.2" fill="white"/>
  
  <!-- Dancing figure silhouette -->
  <path d="M200,150 
           C180,130 160,140 150,160 
           C140,180 150,200 170,210 
           C190,220 210,220 230,210 
           C250,200 260,180 250,160 
           C240,140 220,130 200,150" 
        fill="#4a90e2" opacity="0.8"/>
  
  <!-- Code symbols around figure -->
  <text x="120" y="120" font-family="monospace" font-size="24" fill="#00ff88" opacity="0.7">&lt;/&gt;</text>
  <text x="260" y="120" font-family="monospace" font-size="20" fill="#00ff88" opacity="0.7">{}</text>
  <text x="120" y="280" font-family="monospace" font-size="18" fill="#00ff88" opacity="0.7">()</text>
  <text x="260" y="280" font-family="monospace" font-size="22" fill="#00ff88" opacity="0.7">[]</text>
  
  <!-- Central emoji (winking face) -->
  <text x="200" y="200" text-anchor="middle" dominant-baseline="middle" 
        font-size="48" opacity="0.9">😜</text>
  
  <!-- Outer glow for the dancer -->
  <circle cx="200" cy="180" r="80" fill="url(#starGlow)" opacity="0.3"/>
</svg>